<?xml version="1.0" standalone="no"?>
<!DOCTYPE svg PUBLIC "-//W3C//DTD SVG 20010904//EN"
 "http://www.w3.org/TR/2001/REC-SVG-20010904/DTD/svg10.dtd">
<svg version="1.0" xmlns="http://www.w3.org/2000/svg"
 width="160.000000pt" height="160.000000pt" viewBox="0 0 160.000000 160.000000"
 preserveAspectRatio="xMidYMid meet">
<metadata>
Created by potrace 1.13, written by Peter Selinger 2001-2015
</metadata>
<g transform="translate(0.000000,160.000000) scale(0.080000,-0.080000)"
fill="#000000" stroke="none">
<path d="M152 1250 c-76 -5 -86 -8 -108 -33 -24 -28 -24 -31 -24 -232 0 -201
0 -204 24 -232 l24 -28 238 -3 c131 -2 249 0 261 3 13 3 32 14 43 25 19 19 20
34 20 235 0 281 18 262 -240 267 -85 2 -193 1 -238 -2z m354 -82 c31 -35 34
-43 34 -103 0 -112 -52 -219 -132 -272 -36 -24 -51 -27 -155 -31 -63 -3 -119
0 -124 5 -5 5 0 38 15 83 12 41 43 140 66 218 l44 144 109 -4 109 -3 34 -37z"/>
<path d="M335 1048 c-9 -29 -25 -81 -35 -115 l-19 -63 22 0 c54 0 107 81 107
164 0 45 -13 66 -42 66 -12 0 -22 -15 -33 -52z"/>
<path d="M713 1236 l-28 -24 -3 -199 c-4 -239 -1 -258 41 -283 29 -18 52 -20
270 -20 259 0 288 5 307 56 6 14 10 112 10 219 0 107 -4 205 -10 219 -19 51
-47 56 -314 56 -244 0 -245 0 -273 -24z m367 -44 c0 -4 -22 -75 -49 -157 l-48
-150 88 -3 c49 -1 89 -6 89 -11 0 -4 -7 -28 -16 -54 l-16 -47 -157 0 c-87 0
-160 3 -163 6 -5 5 52 187 115 367 l20 57 68 0 c38 0 69 -3 69 -8z"/>
<path d="M1405 1238 c-43 -23 -45 -33 -45 -244 0 -112 4 -214 9 -227 16 -41
56 -47 308 -47 l235 0 29 31 29 31 0 205 0 205 -29 29 -29 29 -244 0 c-156 0
-250 -5 -263 -12z m429 -34 c11 -4 13 -12 6 -27 -35 -93 -43 -114 -51 -132 -5
-11 -31 -76 -58 -145 l-50 -125 -43 -7 c-64 -10 -126 -9 -133 1 -3 6 30 99 73
208 44 109 82 206 85 216 5 14 19 17 81 17 41 0 81 -3 90 -6z"/>
</g>
</svg>
